<?xml version="1.0" encoding="UTF-8" standalone="no"?>
<svg
   xmlns:dc="http://purl.org/dc/elements/1.1/"
   xmlns:cc="http://creativecommons.org/ns#"
   xmlns:rdf="http://www.w3.org/1999/02/22-rdf-syntax-ns#"
   xmlns:svg="http://www.w3.org/2000/svg"
   xmlns="http://www.w3.org/2000/svg"
   xmlns:sodipodi="http://sodipodi.sourceforge.net/DTD/sodipodi-0.dtd"
   xmlns:inkscape="http://www.inkscape.org/namespaces/inkscape"
   width="107.68544mm"
   height="107.68544mm"
   viewBox="0 0 107.68544 107.68544"
   version="1.1"
   id="svg8"
   inkscape:version="1.0 (4035a4fb49, 2020-05-01)"
   sodipodi:docname="splash.svg">
  <defs
     id="defs2" />
  <sodipodi:namedview
     id="base"
     pagecolor="#ffffff"
     bordercolor="#666666"
     borderopacity="1.0"
     inkscape:pageopacity="0.0"
     inkscape:pageshadow="2"
     inkscape:zoom="1.4"
     inkscape:cx="227.33354"
     inkscape:cy="179.39376"
     inkscape:document-units="mm"
     inkscape:current-layer="layer1"
     inkscape:document-rotation="0"
     showgrid="false"
     fit-margin-top="0"
     fit-margin-left="0"
     fit-margin-right="0"
     fit-margin-bottom="0"
     inkscape:window-width="1483"
     inkscape:window-height="1198"
     inkscape:window-x="2981"
     inkscape:window-y="72"
     inkscape:window-maximized="0" />
  <metadata
     id="metadata5">
    <rdf:RDF>
      <cc:Work
         rdf:about="">
        <dc:format>image/svg+xml</dc:format>
        <dc:type
           rdf:resource="http://purl.org/dc/dcmitype/StillImage" />
        <dc:title></dc:title>
      </cc:Work>
    </rdf:RDF>
  </metadata>
  <g
     inkscape:label="Laag 1"
     inkscape:groupmode="layer"
     id="layer1"
     transform="translate(-53.048959,-83.325275)">
    <path
       style="fill:#ffffff;stroke:none;stroke-width:0.264583"
       d="m 53.048968,185.35857 v -4.46493 l 1.457729,-2.95793 c 0.801749,-1.62686 1.620291,-3.33835 1.818977,-3.8033 0.198689,-0.46495 2.697866,-5.69927 5.553731,-11.63182 2.855865,-5.93254 5.19248,-10.9034 5.19248,-11.04635 0,-0.16361 -2.597647,-0.25991 -7.011458,-0.25991 h -7.011459 v -5.02708 -5.02708 h 13.229167 13.229167 v 4.4601 4.46011 l -1.220166,2.48521 c -0.671089,1.36686 -1.610172,3.31864 -2.086848,4.33729 -0.476676,1.01864 -3.082759,6.48464 -5.791295,12.14665 -2.708535,5.66202 -4.924608,10.39475 -4.924608,10.51719 0,0.12244 3.155156,0.22261 7.011458,0.22261 h 7.011459 v 5.02709 5.02708 H 66.278135 53.048968 Z m 31.981558,3.70711 c -1.314225,-0.83345 -2.164979,-1.79693 -2.83528,-3.21093 -0.393136,-0.82932 -0.447508,-2.83278 -0.520581,-19.18229 -0.04488,-10.04094 -0.0081,-18.86848 0.08162,-19.61676 0.243443,-2.02931 1.526358,-3.99573 3.297251,-5.05395 l 1.44182,-0.86158 8.346078,0.002 8.346076,0.002 1.40352,0.80488 c 1.63874,0.93976 2.79004,2.56105 3.21035,4.52088 0.3909,1.82272 0.38502,36.22659 -0.007,38.05222 -0.41091,1.91599 -1.69206,3.69705 -3.28445,4.56607 l -1.32291,0.72196 -8.481011,0.006 -8.481012,0.006 -1.194959,-0.75782 z m 11.886359,-8.29093 c 0.239382,-0.23938 0.3175,-3.96118 0.3175,-15.12656 0,-16.95053 0.171662,-15.77677 -2.30736,-15.77677 -2.701583,0 -2.45514,-1.56257 -2.45514,15.56681 0,11.32868 0.07801,15.09703 0.3175,15.33652 0.418182,0.41818 3.709318,0.41818 4.1275,0 z m 13.282085,-15.29292 v -24.34166 h 4.70578 4.70578 l 2.01943,6.28385 c 1.11069,3.45612 2.63193,8.21862 3.38054,10.58334 2.07347,6.54974 2.1218,6.40648 2.1218,-6.28996 v -10.58944 l 4.69635,0.0723 4.69636,0.0722 v 24.20937 24.20938 l -4.7625,0.0682 -4.7625,0.0682 -1.14541,-3.64007 c -3.84615,-12.22298 -5.66331,-17.55418 -5.95077,-17.45842 -0.23125,0.077 -0.33009,2.82405 -0.38134,10.59919 l -0.0692,10.4952 h -4.62717 -4.62717 z m 28.575,0 v -24.34166 h 10.9802 10.98021 v 5.02171 5.02172 l -5.4901,0.0715 -5.49011,0.0715 v 4.36562 4.36563 l 4.99282,0.0721 4.99282,0.0721 -0.1397,0.72165 c -0.0768,0.3969 -0.35342,2.65364 -0.61463,5.01497 l -0.47494,4.29333 -4.37818,0.0723 -4.37819,0.0723 v 4.6302 4.63021 l 5.49011,0.0715 5.4901,0.0715 v 5.02172 5.02171 h -10.98021 -10.9802 z M 59.014542,138.69277 c -0.05678,-0.1819 -1.016204,-7.23635 -2.132052,-15.67656 -1.115851,-8.44021 -2.433801,-18.3224 -2.92878,-21.96042 -0.755011,-5.549218 -0.900346,-7.414478 -0.902351,-11.580998 l -0.0024,-4.966412 5.357813,0.07162 5.357812,0.07163 0.303768,3.836452 c 0.167072,2.11006 0.6965,9.3431 1.176505,16.073438 0.635727,8.9138 0.959646,12.23698 1.192757,12.23698 0.446437,0 0.518023,-0.74479 1.563939,-16.27187 0.509725,-7.567088 0.992619,-14.264348 1.073094,-14.882812 l 0.14632,-1.12448 h 7.380132 7.380131 l 0.13651,0.859894 c 0.07507,0.472943 0.50055,6.09865 0.945502,12.50156 1.215221,17.487168 1.348423,18.917708 1.761485,18.917708 0.195522,0 0.355491,-0.21432 0.355491,-0.47628 0,-0.26195 0.116398,-2.01812 0.258665,-3.9026 0.617323,-8.1772 1.073542,-14.414648 1.469787,-20.095078 0.233476,-3.34698 0.459621,-6.442601 0.502547,-6.879164 l 0.07804,-0.79375 5.327772,-0.07163 5.327771,-0.07162 v 5.275894 c 0,5.66716 0.2273,3.64792 -3.591859,31.909018 -0.511299,3.78354 -1.224256,9.12663 -1.584343,11.87352 -0.36009,2.7469 -0.718997,5.09838 -0.797576,5.22552 -0.07858,0.12714 -3.4138,0.23117 -7.411601,0.23117 -5.580798,0 -7.293896,-0.0768 -7.377102,-0.33073 -0.0596,-0.1819 -0.483806,-5.68854 -0.942676,-12.23698 -1.412319,-20.155 -1.426742,-20.3234 -1.749978,-20.43065 -0.187312,-0.0622 -0.367519,0.38679 -0.469262,1.16905 -0.128434,0.98747 -2.265336,30.78216 -2.268593,31.63087 -5.29e-4,0.10914 -3.338248,0.19844 -7.417398,0.19844 -5.701864,0 -7.440507,-0.0765 -7.519874,-0.33073 z m 38.665933,0.15946 c -0.09983,-0.0998 -0.181483,-1.97737 -0.181454,-4.17231 5.8e-5,-4.17399 -0.1139,-3.31515 4.356169,-32.83038 0.35263,-2.328328 1.00494,-6.674108 1.44957,-9.657288 0.44464,-2.98318 0.8983,-5.90021 1.00815,-6.482291 l 0.19971,-1.058333 8.23699,-0.06987 8.23698,-0.06987 0.15837,0.863621 c 0.0871,0.474993 0.4536,2.828163 0.81445,5.229243 0.36084,2.40109 1.81277,11.807028 3.22651,20.902078 2.52349,16.23446 2.57233,16.63673 2.67444,22.02657 l 0.104,5.49011 h -5.68866 -5.68866 l -0.1548,-1.38907 c -0.0851,-0.76399 -0.30207,-3.11546 -0.48206,-5.22551 l -0.32726,-3.83646 -2.84427,-0.0751 c -2.57514,-0.068 -2.8461,-0.0304 -2.86362,0.39688 -0.0106,0.25958 -0.219,2.61509 -0.46302,5.23447 l -0.44367,4.7625 -5.57318,0.0713 c -3.06525,0.0392 -5.654855,-0.0104 -5.754685,-0.11024 z m 16.856315,-23.04592 c -0.0743,-0.69122 -0.41699,-4.51214 -0.76145,-8.49093 -0.34446,-3.97879 -0.69674,-7.3046 -0.78283,-7.390698 -0.44875,-0.44875 -0.67958,1.027408 -1.31464,8.407148 -0.38195,4.43839 -0.69236,8.21862 -0.6898,8.40053 0.003,0.23242 0.55144,0.33072 1.84427,0.33072 h 1.83961 z m 15.30625,-3.96875 0.0674,-27.185932 h 11.90625 11.90625 l 1.35939,0.717026 c 1.69592,0.894528 3.11009,2.519858 3.72495,4.281138 0.41484,1.18833 0.47191,2.37586 0.47191,9.8185 0,7.442648 -0.0571,8.630168 -0.47191,9.818498 -0.51752,1.48244 -1.96279,3.34176 -3.06037,3.93709 -0.38558,0.20914 -0.85612,0.4848 -1.04566,0.61257 -0.26775,0.1805 0.36656,2.13093 2.84428,8.74583 l 3.18887,8.51353 v 3.96384 3.96385 h -5.2841 -5.2841 l -3.46784,-10.58333 c -3.29857,-10.06671 -3.49913,-10.58334 -4.10861,-10.58334 h -0.64076 v 10.58334 10.58333 h -6.08666 -6.08666 z m 16.91374,-4.20819 c 0.44146,-0.39952 0.48385,-0.95987 0.48385,-6.39531 0,-7.241568 0.1409,-6.925138 -3.08371,-6.925138 h -2.20795 v 6.702768 c 0,3.68653 0.0794,6.78216 0.17639,6.87917 0.097,0.097 1.0699,0.17639 2.16198,0.17639 1.47631,0 2.10968,-0.11231 2.46944,-0.43788 z"
       id="path867"
       sodipodi:nodetypes="ccssssscccccccssssscccccccsscscccsscscccccssssssccccssscccccccscscccccccccccccccccsccccccccccccsssccccsssssccccsssssscccssssssscscssscsssccccssssccccscscscccccscscsccccccssscssscccccssccccccssscssss" />
  </g>
</svg>
